<svg width="21" height="26" viewBox="0 0 21 26" fill="none" xmlns="http://www.w3.org/2000/svg">
<path d="M16.4715 3.92256C18.4753 3.92256 19.9726 3.01911 19.9726 2.2112C19.9726 1.40337 18.4753 0.5 16.4715 0.5C14.4735 0.5 12.9805 1.40337 12.9805 2.2112C12.9805 3.01911 14.4735 3.92256 16.4715 3.92256Z" fill="#C04F55"/>
<path d="M16.4756 10.5899C18.4032 10.5899 19.9716 9.02154 19.9716 7.09385V4.21094C19.1119 4.79377 17.8715 5.15412 16.4704 5.15412C15.799 5.15412 15.165 5.07028 14.5918 4.91919C15.0951 5.38787 15.3862 5.95555 15.3862 6.57331V10.4151C15.7292 10.528 16.0952 10.5899 16.4756 10.5899Z" fill="#C04F55"/>
<path d="M20.2284 12.1626C19.8989 12.0264 19.5195 12.1015 19.2674 12.3537L17.3593 14.2618V11.743C17.0735 11.7972 16.7789 11.8268 16.4774 11.8268C16.1758 11.8268 15.8816 11.7967 15.5957 11.7422V24.6174C15.5957 25.1044 15.9905 25.4993 16.4774 25.4993C16.9644 25.4993 17.3593 25.1045 17.3593 24.6174V20.868C17.3891 20.8375 17.4176 20.8052 17.4433 20.7697L20.6051 16.4046C20.7141 16.2542 20.7727 16.0731 20.7727 15.8874V12.9774C20.7728 12.6206 20.558 12.2991 20.2284 12.1626Z" fill="#30BD57"/>
<path d="M9.77344 16.1094V24.6183C9.77344 25.1052 10.1683 25.5002 10.6553 25.5002C11.1423 25.5002 11.5372 25.1053 11.5372 24.6183V16.1094C11.2513 16.1636 10.9568 16.1926 10.6553 16.1926C10.3539 16.1926 10.0594 16.1635 9.77344 16.1094Z" fill="#30BD57"/>
<path d="M10.6512 4.85938C8.65309 4.85938 7.16016 5.76274 7.16016 6.57057C7.16016 7.3784 8.653 8.28185 10.6512 8.28185C12.655 8.28185 14.1523 7.3784 14.1523 6.57057C14.1523 5.76274 12.655 4.85938 10.6512 4.85938Z" fill="#C04F55"/>
<path d="M7.16016 8.57981V11.461C7.16016 13.3887 8.72851 14.9571 10.6562 14.9571C12.5839 14.9571 14.1522 13.3887 14.1522 11.461V8.57812C13.2926 9.16104 12.0522 9.52139 10.6511 9.52139C9.2546 9.52139 8.0179 9.16163 7.16016 8.57981Z" fill="#C04F55"/>
<path d="M1.33789 4.21094V7.09225C1.33789 9.01994 2.90633 10.5883 4.83402 10.5883C5.21441 10.5883 5.5804 10.5265 5.92341 10.4134V6.57171C5.92341 5.95328 6.21449 5.38501 6.71761 4.91599C6.14159 5.06801 5.50422 5.15252 4.82888 5.15252C3.43242 5.15244 2.1958 4.79276 1.33789 4.21094Z" fill="#C04F55"/>
<path d="M4.82897 3.92256C6.83284 3.92256 8.33015 3.01911 8.33015 2.2112C8.33006 1.40337 6.83276 0.5 4.82897 0.5C2.83082 0.5 1.33789 1.40337 1.33789 2.2112C1.33789 3.01911 2.83082 3.92256 4.82897 3.92256Z" fill="#C04F55"/>
<path d="M3.9536 11.7432V14.0736L2.2339 12.3539C1.98171 12.1017 1.60242 12.0264 1.27288 12.1627C0.943331 12.2993 0.728516 12.6207 0.728516 12.9775V15.8876C0.728516 16.0732 0.787101 16.2544 0.896108 16.4048L3.95352 20.6259V24.6176C3.95352 25.1046 4.3483 25.4995 4.83542 25.4995C5.32237 25.4995 5.71724 25.1046 5.71724 24.6176V11.7422C5.43138 11.7967 5.13693 11.827 4.83542 11.827C4.53399 11.827 4.23946 11.7974 3.9536 11.7432Z" fill="#30BD57"/>
</svg>
