<svg width="40" height="33" viewBox="0 0 40 33" fill="none" xmlns="http://www.w3.org/2000/svg">
<g clip-path="url(#clip0_2208_157076)">
<path d="M3.45789 28.7832H1.64844V2.13281H26.2168V6.29694H32.8794L37.8764 16.2908V28.7832H35.3781M17.4721 28.7832H20.582" stroke="#628222" stroke-width="2.5" stroke-linecap="round" stroke-linejoin="round"/>
<path d="M13.7251 27.9485C13.7251 29.7883 12.2336 31.2798 10.3938 31.2798C8.55397 31.2798 7.0625 29.7883 7.0625 27.9485C7.0625 26.1087 8.55397 24.6172 10.3938 24.6172C12.2336 24.6172 13.7251 26.1087 13.7251 27.9485Z" stroke="#628222" stroke-width="2.5" stroke-linecap="round"/>
<path d="M31.2134 27.9485C31.2134 29.7883 29.7219 31.2798 27.8821 31.2798C26.0423 31.2798 24.5508 29.7883 24.5508 27.9485C24.5508 26.1087 26.0423 24.6172 27.8821 24.6172C29.7219 24.6172 31.2134 26.1087 31.2134 27.9485Z" stroke="#628222" stroke-width="2.5" stroke-linecap="round"/>
<path d="M14.8 22V7.72H19.36C21.2 7.72 22.54 8.09333 23.38 8.84C24.2333 9.58667 24.66 10.6133 24.66 11.92C24.66 12.6933 24.4867 13.42 24.14 14.1C23.7933 14.78 23.2133 15.3267 22.4 15.74C21.6 16.1533 20.5067 16.36 19.12 16.36H17.82V22H14.8ZM13.2 19.86V17.92H20.9V19.86H13.2ZM13.2 16.36V13.88H19.06V16.36H13.2ZM18.82 13.88C19.3933 13.88 19.8867 13.82 20.3 13.7C20.7133 13.5667 21.0333 13.36 21.26 13.08C21.4867 12.8 21.6 12.4467 21.6 12.02C21.6 11.4067 21.4067 10.9533 21.02 10.66C20.6333 10.3533 20.0267 10.2 19.2 10.2H17.82V13.88H18.82Z" fill="#628222"/>
</g>
<defs>
<clipPath id="clip0_2208_157076">
<rect width="40" height="33" fill="white"/>
</clipPath>
</defs>
</svg>
