<svg width="30" height="30" viewBox="0 0 30 30" fill="none" xmlns="http://www.w3.org/2000/svg">
<path d="M2 10.5865H28M7.77778 1.75781V4.70071M22.2222 1.75781V4.70071M6.62222 28.2439H23.3778C24.9957 28.2439 25.8047 28.2439 26.4227 27.9231C26.9662 27.6411 27.4082 27.1908 27.6851 26.6371C28 26.0076 28 25.1835 28 23.5353V9.40936C28 7.76117 28 6.93708 27.6851 6.30757C27.4082 5.75382 26.9662 5.30361 26.4227 5.02148C25.8047 4.70071 24.9957 4.70071 23.3778 4.70071H6.62222C5.0043 4.70071 4.19532 4.70071 3.57736 5.02148C3.03377 5.30361 2.59183 5.75382 2.31487 6.30757C2 6.93708 2 7.76117 2 9.40936V23.5353C2 25.1835 2 26.0076 2.31487 26.6371C2.59183 27.1908 3.03377 27.6411 3.57736 27.9231C4.19532 28.2439 5.00429 28.2439 6.62222 28.2439Z" stroke="#D9D9D9" stroke-width="2.5" stroke-linecap="round" stroke-linejoin="round"/>
<path d="M7.57031 16.2656H9.84015" stroke="#D9D9D9" stroke-width="2.5" stroke-linecap="round" stroke-linejoin="round"/>
<path d="M14.3789 16.2656H16.6487" stroke="#D9D9D9" stroke-width="2.5" stroke-linecap="round" stroke-linejoin="round"/>
<path d="M20.5703 16.2656H22.8402" stroke="#D9D9D9" stroke-width="2.5" stroke-linecap="round" stroke-linejoin="round"/>
<path d="M7.57031 21.3125H9.84015" stroke="#D9D9D9" stroke-width="2.5" stroke-linecap="round" stroke-linejoin="round"/>
<path d="M14.3789 21.3125H16.6487" stroke="#D9D9D9" stroke-width="2.5" stroke-linecap="round" stroke-linejoin="round"/>
<path d="M20.5703 21.3125H22.8402" stroke="#D9D9D9" stroke-width="2.5" stroke-linecap="round" stroke-linejoin="round"/>
</svg>
