<svg width="14" height="17" viewBox="0 0 14 17" fill="none" xmlns="http://www.w3.org/2000/svg">
<path d="M7 0.859375C9.20625 0.859375 11 2.65313 11 4.85938V6.19531H11.957C12.8992 6.19531 13.665 6.96113 13.665 7.90332V15.1533C13.6665 16.0953 12.8994 16.8611 11.959 16.8613H2.04004C1.09792 16.8613 0.332137 16.0954 0.332031 15.1533V7.90332C0.332031 6.96113 1.09785 6.19531 2.04004 6.19531H3V4.85938C3 2.65313 4.79375 0.859375 7 0.859375ZM7 2.85938C5.52969 2.85938 5 3.38906 5 4.85938V6.19531H9V4.85938C9 3.38906 8.47031 2.85938 7 2.85938Z" fill="#AD2E1D"/>
</svg>
