<svg width="38" height="30" viewBox="0 0 38 30" fill="none" xmlns="http://www.w3.org/2000/svg">
<path d="M15.9293 23.3671V14.4998M15.9293 14.4998V7.67879C18.8282 7.22406 23.9571 6.99669 23.9571 11.0893C23.9571 16.0306 18.3822 14.9545 15.9293 14.4998ZM11.9154 19.2745H21.9501M28.7593 4.7284C28.7189 6.09259 29.4282 8.82099 32.7731 8.82099M4.67593 21.7809C6.68287 21.7809 9.3588 22.6716 9.3588 25.4M9.35874 4.7284C9.31838 6.09259 8.3132 8.82099 4.61533 8.82099M32.7731 21.7809C30.0972 21.7809 28.7593 22.6716 28.7593 25.4M2 4.6C2 3.17 3.17692 2 4.61538 2H33.3846C34.3148 2 35.1357 2.48928 35.5996 3.22175C35.8531 3.62195 36 4.09475 36 4.6V11.2857V25.4C36 26.83 34.8231 28 33.3846 28H4.61538C3.17692 28 2 26.83 2 25.4V11.2857V4.6Z" stroke="#30BD57" stroke-width="2.5" stroke-miterlimit="10" stroke-linejoin="round"/>
</svg>
