<svg width="24" height="22" viewBox="0 0 24 22" fill="none" xmlns="http://www.w3.org/2000/svg">
<path d="M0.423828 13.639C0.423828 11.216 0.423828 10.0058 1.1684 9.25295C1.79928 8.61507 2.75489 8.51766 4.48969 8.50279C4.71124 8.50089 4.94549 8.50033 5.19341 8.50017C5.29535 8.50011 5.39961 8.50011 5.50625 8.50011H6.5024C6.63454 8.50011 6.70061 8.50011 6.75144 8.46413C6.80099 8.42688 6.82132 8.36393 6.86325 8.23674L7.46806 6.40344C7.74759 5.55552 7.88736 5.13157 8.22026 4.88747C8.55315 4.64594 8.99533 4.64594 9.87967 4.64594H13.8401C14.7232 4.64594 15.1654 4.64594 15.4983 4.88875C15.8312 5.13157 15.9709 5.55552 16.2505 6.40344L16.8794 8.31254C16.8894 8.34774 16.903 8.38176 16.9201 8.41403C16.9463 8.45343 16.9828 8.47998 17.0294 8.49368C17.0548 8.50011 17.0814 8.50011 17.1374 8.50011C18.1386 8.50011 18.6379 8.50011 19.0407 8.64143C19.4053 8.7684 19.7365 8.9776 20.0092 9.25316C20.282 9.52872 20.4891 9.86342 20.615 10.2319C20.7535 10.6392 20.7535 11.1441 20.7535 12.1564V16.2084C20.7535 18.6314 20.7535 19.8416 20.0089 20.5945C19.2643 21.3473 18.0674 21.3473 15.6711 21.3473H5.50625C3.10989 21.3473 1.91298 21.3473 1.1684 20.5945C0.423828 19.8416 0.423828 18.6314 0.423828 16.2084V13.639Z" fill="#C04F55" fill-opacity="0.3"/>
<path d="M5.19341 7.91404C5.19341 7.53978 4.89001 7.23639 4.51575 7.23639H1.84606C1.4718 7.23639 1.1684 7.53978 1.1684 7.91404V9.25295C1.79928 8.61507 2.75489 8.51766 4.48969 8.50279C4.71124 8.50089 4.94549 8.50033 5.19341 8.50017V7.91404Z" fill="#6F1B2D"/>
<path d="M5.19341 8.50017C4.94549 8.50033 4.71124 8.50089 4.48969 8.50279C2.75489 8.51766 1.79928 8.61507 1.1684 9.25295C0.423828 10.0058 0.423828 11.216 0.423828 13.639V16.2084C0.423828 18.6314 0.423828 19.8416 1.1684 20.5945C1.91298 21.3473 3.10989 21.3473 5.50625 21.3473H15.6711C18.0674 21.3473 19.2643 21.3473 20.0089 20.5945C20.7535 19.8416 20.7535 18.6314 20.7535 16.2084V12.1564C20.7535 11.1441 20.7535 10.6392 20.615 10.2319C20.4891 9.86342 20.282 9.52871 20.0092 9.25316C19.7365 8.9776 19.4053 8.76841 19.0407 8.64143C18.6379 8.50011 18.1386 8.50011 17.1374 8.50011C17.0814 8.50011 17.0548 8.50011 17.0294 8.49368C16.9828 8.47998 16.9463 8.45343 16.9201 8.41403C16.903 8.38176 16.8894 8.34774 16.8794 8.31254L16.2505 6.40344C15.9709 5.55552 15.8312 5.13157 15.4983 4.88875C15.1654 4.64594 14.7232 4.64594 13.8401 4.64594H9.87967C8.99533 4.64594 8.55315 4.64594 8.22026 4.88747C7.88736 5.13157 7.74759 5.55552 7.46806 6.40344L6.86325 8.23674C6.82132 8.36393 6.80099 8.42688 6.75144 8.46413C6.70061 8.50011 6.63454 8.50011 6.5024 8.50011H5.50625C5.39961 8.50011 5.29535 8.50011 5.19341 8.50017ZM1.1684 9.25295V7.91404C1.1684 7.53978 1.4718 7.23639 1.84606 7.23639H4.51575C4.89001 7.23639 5.19341 7.53978 5.19341 7.91404V8.50017M21.2617 0.423828V2.37209M21.2617 4.32035V2.37209M21.2617 2.37209H19.737H22.7865" stroke="#6F1B2D" stroke-width="0.84707" stroke-linecap="round" stroke-linejoin="round"/>
<path d="M13.764 6.57422H9.95215" stroke="#6F1B2D" stroke-width="0.84707" stroke-linecap="round"/>
<path d="M11.8587 18.7786C13.9639 18.7786 15.6705 17.0531 15.6705 14.9245C15.6705 12.7959 13.9639 11.0703 11.8587 11.0703C9.75348 11.0703 8.04688 12.7959 8.04688 14.9245C8.04688 17.0531 9.75348 18.7786 11.8587 18.7786Z" fill="#F5E0E1" stroke="#6F1B2D" stroke-width="0.84707" stroke-linecap="round"/>
</svg>
